<svg width="67" height="50" fill="none" xmlns="http://www.w3.org/2000/svg"><circle cx="34.5" cy="25" r="25" fill="#68B738"/><g clip-path="url(#clip0)"><path d="M61.55 13.9c.5772-.9185 1.3444-1.7027 2.25-2.3.5-.35.8-.35 1.1.3.4.95.75 1.95.45 3-.0546.1781-.0649.3668-.0301.5497.0349.183.1139.3547.2301.5003.3.4.55.8.8 1.15.3402.4319.5609.9456.6399 1.4897.079.5442.0135 1.0995-.1899 1.6103-.1836.4959-.2183 1.0346-.1 1.55.0999.495.0999 1.005 0 1.5-.0404.3707-.1905.7209-.4309 1.0059-.2405.285-.5605.4919-.9191.5941-.6396.1217-1.2104.4784-1.6 1-.0472.0768-.1135.1401-.1923.1839-.0788.0438-.1676.0666-.2577.0661-.6.1-2.1-1.25-2.1-1.85v-.3c.05-1.8-.05-1.95-1.7-2.7-.3454-.1218-.6548-.3281-.9-.6-.3-.4-.7-.35-1.15-.2-.45.15-.7.45-.65.95.1508 1.2104.2009 2.4313.15 3.65.0033.1391.0375.2757.1.4 1.55 2.25 2.15 4.9 2.9 7.45.6 1.95 1.7 3 3.7 3.15.32.0255.6376.0757.95.15.4109.066.7926.2538 1.0956.539.3031.2852.5136.6548.6044 1.061.35 1.05.15 1.3-.9 1.3h-3.25c-.4208.0213-.8333-.1222-1.15-.4-.5061-.4271-1.0809-.7652-1.7-1-.6845-.2527-1.2769-.7057-1.7-1.3-.5857-.8183-1.2561-1.5725-2-2.25-1.4-1.45-2.9-2.85-4.2-4.35-.9897-1.0221-1.5605-2.3779-1.6-3.8 0-.45-.1-.65-.6-.45-.1497.095-.3227.1469-.5.15-1.4 0-2.1.85-2.6 2.1-.45 1.05-1.05 2.05-1.6 3.1-.3119.6572-.4822 1.3727-.5 2.1 0 1.2.3 1.6 1.4 2 .7.25 1.35.5 1.7 1.2.4.8.3 1-.55 1.05h-3.4c-.196.0194-.3932-.0233-.5636-.1219-.1705-.0987-.3057-.2485-.3864-.4281l-.9-1.5c-.2653-.3914-.4352-.8395-.4959-1.3084-.0608-.4689-.0109-.9455.1459-1.3916.2164-.8683.2335-1.7742.05-2.65-.1261-.61-.1152-1.2403.0318-1.8455s.4264-1.1703.8182-1.6545c.3-.35.3-.5-.2-.6-2.0446-.4343-4.0267-1.123-5.9-2.05-.0133 0-.026-.0053-.0354-.0147-.0094-.0093-.0146-.0221-.0146-.0353-1.6-.6-1.9-.5-2.35 1.15-.4 1.4-.8 2.8-1.1 4.25-.35 1.6.05 3.1.55 4.6.2.6.8.55 1.25.7 1 .3 1.85.7 2.25 1.75.35.8.3.9-.55.9-.85 0-1.7-.05-2.6 0-.7595.0137-1.5007-.2333-2.1-.7-2.4-1.6-3.1-4.05-3.3-6.7-.1-1.65-1-2.95-2.05-4.2-.2-.25-.4-.35-.7-.15-1.0733.5918-2.1938 1.0935-3.35 1.5-2.4129.852-4.5302 2.3792-6.1 4.4-.5862.7375-.9658 1.6175-1.1 2.55-.15.9.1 1.3 1 1.55s1.35.75 1.45 1.7c.05.4-.1.6-.5.6h-4.05c-.1326-.0094-.2609-.0507-.3741-.1203-.1131-.0697-.2078-.1656-.2759-.2797-.6281-.7776-.9642-1.7505-.95-2.75-.0263-1.7276.1245-3.4532.45-5.15.0667-.5082.2564-.9924.5527-1.4106.2962-.4182.69-.7579 1.1473-.9894 2.95-1.4 4.5-4.05 5.9-6.8.3-.55.05-.65-.45-.6-1.3994.1942-2.7252.7452-3.85 1.6-1.4729 1.0744-2.8604 2.2613-4.15 3.55-1.3752 1.3968-3.19867 2.2643-5.15002 2.45-3.65.2-5.350001-1.85-5.20000123-5.15C.03351 20.7748.457802 19.6964 1.19998 18.85c.25801-.3345.60987-.5845 1.01063-.7181.40077-.1336.83226-.1447 1.23937-.0319.75.2.95.6.65 1.35-.15.3-.35.55-.5.85-.2157.3065-.38424.6435-.5 1-.55 1.5.2 2.55 1.75 2.7 1.65.15 3-.55 4.25-1.55C10.6059 21.2441 11.9503 19.8493 13.1 18.3c.8596-1.1313 1.942-2.0744 3.1804-2.771 1.2384-.6965 2.6064-1.1319 4.0196-1.279 1.15-.15 2.15-.65 3.25-.95 2.0572-.6272 4.1995-.9308 6.35-.9.996.0415 1.9883-.1467 2.9-.55 2.45-1 5-1 7.55-.5 2 .4 4 .9 5.95 1.4 1.1605.2162 2.3537.1821 3.5-.1 2.1943-.5563 4.4389-.8913 6.7-1 1.4812-.0721 2.9576.2197 4.3.85 1 .45 1 .45.75 1.4z" fill="#000"/></g><defs><clipPath id="clip0"><path fill="#fff" transform="translate(0 11)" d="M0 0h67v28H0z"/></clipPath></defs></svg>