<svg width="200" height="211" fill="none" xmlns="http://www.w3.org/2000/svg"><circle cx="100" cy="111" r="100" fill="#68B738"/><g clip-path="url(#clip0)"><path d="M139.68 0h-.76c-1.284.718392-2.306 1.81987-2.92 3.14722-1.125 2.14191-1.991 4.4074-2.58 6.74969-.126.70429-.486 1.34709-1.022 1.82719-.535.4801-1.217.7704-1.938.8252-2.204.376-4.293 1.2456-6.105 2.5424-1.813 1.2967-3.303 2.9862-4.355 4.9396-1.447 2.5363-2.684 5.1841-3.7 7.9176-2.84 7.2841-5.02 14.8057-7.7 22.1492-1.26 3.3452-1.32 3.3452-5.12 3.3452-4.54 0-4.22-.6928-4.28 4.2557 0 1.5637.48 2.3554 2.16 2.2763.52 0 1.3-.2574 1.5.4156.2.673-.48.9699-.88 1.3658-2.3714 2.3825-5.3725 4.0562-8.66 4.8297-3.8 1.0095-7.68 1.8012-11.38 3.0284-9.5 3.1473-18.28 7.5415-25.12 14.984-3.9994 4.6226-7.2023 9.8655-9.48 15.5182-7.34 17.102-10.9 35.114-13.66 53.305-1.3 8.531-2.22 17.102-2.92 25.732C30.4 183.39 30 187.685 30 192h66.66c.1107-.871-.0498-1.755-.46-2.534-.6411-1.579-1.6829-2.968-3.0247-4.032-1.3418-1.065-2.9383-1.769-4.6353-2.044-1.4-.317-1.56-.733-.7-1.821 1.4027-1.853 2.478-3.928 3.18-6.136 3.26-9.521 4.52-19.458 6.1-29.295.8925-7.514 3.228-14.79 6.88-21.437 2.849-4.892 6.649-9.178 11.18-12.609 1.66-1.247 1.72-1.247 2 .871.2 1.406.24 2.851.34 4.276.6 9.351.48 18.734-.36 28.067-.755 7.235-.856 14.522-.3 21.774.795 8.419 2.314 16.756 4.54 24.92H148c-.347-2.143-1.344-4.131-2.858-5.7-1.515-1.569-3.475-2.647-5.622-3.088-2.507-.395-5.07-.26-7.52.395-1.2.278-1.7 0-1.8-1.286-.827-10.479-.154-21.021 2-31.314 2.668-11.882 4.71-23.893 6.12-35.985.525-4.883 2.078-9.603 4.56-13.856 2.38-4.1961 4.46-8.5507 6.8-12.7668.929-1.533 1.488-3.2575 1.634-5.0393.146-1.7818-.126-3.5728-.794-5.2337-.54-1.4054-1.06-2.8305-1.72-4.1765-2-3.8598-4-7.68-5.84-11.5794-.98-1.9794-.76-2.2169 1.42-2.2763 3.26 0 3.26 0 3.32-3.2462v-1.3064c0-1.3657-.52-2.1179-2-1.9793h-3.04c-1.38 0-1.78-.5741-1.44-1.9794.675-2.2846 2.002-4.3276 3.822-5.8832 1.82-1.5557 4.056-2.5577 6.438-2.8855 4.431-.3802 8.896-.0933 13.24.8512.501.1563 1.045.111 1.512-.1261.468-.237.823-.6468.988-1.1408.8-1.9793 1.68-3.9587 2.58-5.9381.204-.3512.294-.7558.258-1.1594-.035-.4035-.195-.7864-.458-1.0971-6.4-8.0363-13.34-15.5381-22.8-20.348-.457-.1947-.858-.4996-1.165-.8869-.307-.3872-.512-.8445-.595-1.33-.535-2.82954-1.387-5.59129-2.54-8.23426C141.959 1.99643 140.969.801217 139.68 0z" fill="#000"/></g><defs><clipPath id="clip0"><path fill="#fff" transform="translate(30)" d="M0 0h140v192H0z"/></clipPath></defs></svg>