<svg width="20" height="20" viewBox="0 0 20 20" fill="none" xmlns="http://www.w3.org/2000/svg">
<path d="M17.9 9.4H9.40002V10.6H17.9L15.8 12.7L16.7 13.6L19.8 10.5C19.8974 10.3702 19.95 10.2123 19.95 10.05C19.95 9.88772 19.8974 9.72982 19.8 9.6L16.7 6.5L15.8 7.4L17.9 9.4Z" fill="black"/>
<path d="M8.10764 19.4017V13.2017C8.09609 13.0464 8.02917 12.9004 7.91905 12.7903C7.80894 12.6802 7.66294 12.6133 7.50764 12.6017H3.10764C3.11279 12.9184 3.24088 13.2206 3.46481 13.4446C3.68875 13.6685 3.99099 13.7966 4.30764 13.8017H6.80764V18.8017H3.10764C2.87089 18.8166 2.63354 18.7842 2.40939 18.7065C2.18525 18.6289 1.97878 18.5074 1.80199 18.3492C1.6252 18.191 1.48162 17.9993 1.37958 17.7851C1.27755 17.571 1.21911 17.3387 1.20764 17.1017V3.10172C1.19944 2.639 1.37279 2.19148 1.69055 1.85502C2.00832 1.51857 2.44521 1.31995 2.90764 1.30172H6.80764V6.30172H4.40764C4.09099 6.30687 3.78875 6.43495 3.56481 6.65889C3.34088 6.88283 3.21279 7.18507 3.20764 7.50172H7.60764C7.76294 7.49017 7.90894 7.42325 8.01905 7.31313C8.12917 7.20301 8.19609 7.05702 8.20764 6.90172V0.601721C8.15995 0.445581 8.0688 0.306243 7.94484 0.199994C7.82088 0.0937442 7.66924 0.0249739 7.50764 0.00172136H3.10764C2.71362 -0.0116318 2.32084 0.0528092 1.95174 0.19136C1.58264 0.329911 1.24447 0.539854 0.956562 0.809186C0.668656 1.07852 0.436659 1.40196 0.273837 1.76101C0.111014 2.12006 0.0205594 2.50769 0.00764403 2.90172V16.8017C-0.021335 17.1994 0.0322798 17.5987 0.165117 17.9746C0.297953 18.3506 0.507138 18.6949 0.779516 18.9861C1.05189 19.2773 1.38157 19.5089 1.74782 19.6665C2.11406 19.8241 2.50895 19.9042 2.90764 19.9017H7.50764C7.58113 19.9167 7.65706 19.915 7.72979 19.8967C7.80253 19.8784 7.87022 19.844 7.92784 19.796C7.98546 19.7479 8.03154 19.6876 8.06266 19.6193C8.09379 19.5511 8.10916 19.4767 8.10764 19.4017Z" fill="black"/>
</svg>
